HIERARCHY
ROOT Pelvis
{
	OFFSET 0.000000 0.000000 0.000000
	CHANNELS 6 Xposition Yposition Zposition Xrotation Yrotation Zrotation
	JOINT LeftUpLeg_virtual
	{
		OFFSET 0.000000 0.000000 0.000000
		CHANNELS 3 Xrotation Yrotation Zrotation
		JOINT LeftUpLeg
		{
			OFFSET 18.735201 -5.666702 -4.541200
			CHANNELS 3 Xrotation Yrotation Zrotation
			JOINT LeftLeg
			{
				OFFSET -0.021200 -31.938179 0.493100
				CHANNELS 3 Xrotation Yrotation Zrotation
				JOINT LeftFoot
				{
					OFFSET 0.021200 -31.938179 -4.336299
					CHANNELS 3 Xrotation Yrotation Zrotation
					JOINT LeftToeBase
					{
						OFFSET 0.943001 -26.722000 15.023500
						CHANNELS 3 Xrotation Yrotation Zrotation
						End Site
						{
							OFFSET 0 0 0
						}
					}
				}
			}
		}
	}
	JOINT RightUpLeg_virtual
	{
		OFFSET 0.000000 0.000000 0.000000
		CHANNELS 3 Xrotation Yrotation Zrotation
		JOINT RightUpLeg
		{
			OFFSET -18.735201 -5.666702 -4.541200
			CHANNELS 3 Xrotation Yrotation Zrotation
			JOINT RightLeg
			{
				OFFSET 0.018946 -31.938133 0.493100
				CHANNELS 3 Xrotation Yrotation Zrotation
				JOINT RightFoot
				{
					OFFSET -0.018946 -31.938126 -4.336299
					CHANNELS 3 Xrotation Yrotation Zrotation
					JOINT RightToeBase
					{
						OFFSET -0.943001 -26.722004 15.023500
						CHANNELS 3 Xrotation Yrotation Zrotation
						End Site
						{
							OFFSET 0 0 0
						}
					}
				}
			}
		}
	}
	JOINT Hips_virtual
	{
		OFFSET 0.000000 0.000000 0.000000
		CHANNELS 3 Xrotation Yrotation Zrotation
		JOINT Hips
		{
			OFFSET -0.000000 -0.000000 -0.000000
			CHANNELS 3 Xrotation Yrotation Zrotation
			JOINT Spine
			{
				OFFSET 0.000000 10.199997 -0.299500
				CHANNELS 3 Xrotation Yrotation Zrotation
				JOINT Spine1
				{
					OFFSET 0.000000 11.900002 -1.516600
					CHANNELS 3 Xrotation Yrotation Zrotation
					JOINT Spine2
					{
						OFFSET 0.000000 13.600006 -2.842500
						CHANNELS 3 Xrotation Yrotation Zrotation
						JOINT Neck_virtual
						{
							OFFSET 0.000000 0.000000 0.000000
							CHANNELS 3 Xrotation Yrotation Zrotation
							JOINT Neck
							{
								OFFSET 0.000000 9.624100 -2.890100
								CHANNELS 3 Xrotation Yrotation Zrotation
								JOINT Head
								{
									OFFSET 0.000000 14.068802 -1.351900
									CHANNELS 3 Xrotation Yrotation Zrotation
									End Site
									{
										OFFSET 0 0 0
									}
								}
							}
						}
						JOINT LeftShoulder_virtual
						{
							OFFSET 0.000000 0.000000 0.000000
							CHANNELS 3 Xrotation Yrotation Zrotation
							JOINT LeftShoulder
							{
								OFFSET 15.263000 10.923401 -0.547700
								CHANNELS 3 Xrotation Yrotation Zrotation
								JOINT LeftArm
								{
									OFFSET 25.438599 -2.830597 -13.032500
									CHANNELS 3 Xrotation Yrotation Zrotation
									JOINT LeftForeArm
									{
										OFFSET 29.960503 0.000000 0.000000
										CHANNELS 3 Xrotation Yrotation Zrotation
										JOINT LeftHand
										{
											OFFSET 27.849251 0.000000 0.000000
											CHANNELS 3 Xrotation Yrotation Zrotation
											End Site
											{
												OFFSET 0 0 0
											}
										}
									}
								}
							}
						}
						JOINT RightShoulder_virtual
						{
							OFFSET 0.000000 0.000000 0.000000
							CHANNELS 3 Xrotation Yrotation Zrotation
							JOINT RightShoulder
							{
								OFFSET -15.263000 10.923401 -0.547700
								CHANNELS 3 Xrotation Yrotation Zrotation
								JOINT RightArm
								{
									OFFSET -25.438599 -2.830597 -13.032500
									CHANNELS 3 Xrotation Yrotation Zrotation
									JOINT RightForeArm
									{
										OFFSET -29.960503 0.000000 0.000000
										CHANNELS 3 Xrotation Yrotation Zrotation
										JOINT RightHand
										{
											OFFSET -27.849251 0.000000 0.000000
											CHANNELS 3 Xrotation Yrotation Zrotation
											End Site
											{
												OFFSET 0 0 0
											}
										}
									}
								}
							}
						}
					}
				}
			}
		}
	}
}
MOTION
Frames: 4
Frame Time: 0.03333333
0.075385 93.039749 4.119404 0.000000 0.000000 0.000000 1.892617 0.289918 -0.238166 -9.663925 -5.893861 11.728586 20.872319 -0.891170 -1.849965 -10.224155 15.306917 -10.563849 0.000000 0.000000 0.000000 1.892617 0.289918 -0.238166 -6.984652 -4.437395 -10.836143 19.819365 0.860614 -0.235457 -12.878644 -12.275149 9.736582 0.000000 0.000000 0.000000 1.892617 0.289918 -0.238166 0.000000 0.000000 0.000000 2.070963 0.275684 0.912760 3.430438 -0.015269 0.185037 0.000000 0.000000 0.000000 3.430499 0.005499 0.178976 -1.410893 -0.005340 -0.007984 0.000000 0.000000 0.000000 3.430499 0.005499 0.178976 0.742837 8.952360 -13.053722 10.740851 -6.252035 -54.033862 0.000006 -33.005909 0.000004 0.000000 0.000000 0.000000 3.430499 0.005499 0.178976 1.078069 -8.352865 11.371666 3.407871 18.890949 61.317299 -0.000002 23.538785 0.000006 0.000000 0.000000 0.000000 
1.102137 92.874359 4.125134 0.000000 0.000000 0.000000 2.047197 0.077309 -0.207082 -11.348776 -5.213165 11.282915 22.973743 -1.360255 -2.150208 -11.459632 13.161810 -9.616582 0.000000 0.000000 0.000000 2.047197 0.077309 -0.207082 -7.241187 -4.236748 -11.835836 19.664878 1.095378 -0.229779 -12.411322 -12.345021 10.669882 0.000000 0.000000 0.000000 2.047197 0.077309 -0.207082 0.000000 0.000000 0.000000 2.391755 0.013461 0.833630 3.299831 -0.080446 0.171142 0.000000 0.000000 0.000000 3.300181 -0.060740 0.166296 -1.358483 0.000807 -0.008097 0.000000 0.000000 0.000000 3.300181 -0.060740 0.166296 0.729728 8.312049 -13.050098 10.192952 -6.689419 -54.453038 0.000003 -32.826555 -0.000004 0.000000 0.000000 0.000000 3.300181 -0.060740 0.166296 1.124653 -7.724696 11.847046 3.010281 18.678489 60.639772 0.000004 22.673023 -0.000017 0.000000 0.000000 0.000000 
2.144308 92.705521 4.048134 0.000000 0.000000 0.000000 2.192201 -0.119742 -0.172208 -13.099450 -4.480600 10.891864 24.944010 -1.911616 -2.442539 -12.466617 10.749768 -8.685874 0.000000 0.000000 0.000000 2.192201 -0.119742 -0.172208 -7.578971 -4.038754 -12.855851 19.525071 1.324628 -0.223873 -11.854248 -12.392916 11.620127 0.000000 0.000000 0.000000 2.192201 -0.119742 -0.172208 0.000000 0.000000 0.000000 2.732922 -0.249079 0.735894 3.162680 -0.145143 0.154605 0.000000 0.000000 0.000000 3.163292 -0.126561 0.150962 -1.307561 0.007407 -0.007494 0.000000 0.000000 0.000000 3.163292 -0.126561 0.150962 0.717565 7.653005 -13.047678 9.666117 -7.152679 -54.905483 -0.000007 -32.583219 -0.000002 0.000000 0.000000 0.000000 3.163292 -0.126561 0.150962 1.162525 -7.068633 12.335784 2.566463 18.497472 59.924207 -0.000001 21.753107 -0.000001 0.000000 0.000000 0.000000 
3.193649 92.537437 3.922974 0.000000 0.000000 0.000000 2.331772 -0.307992 -0.135365 -14.812413 -3.762223 10.488529 26.780159 -2.346985 -2.692859 -13.276393 8.260879 -7.797224 0.000000 0.000000 0.000000 2.331772 -0.307992 -0.135365 -7.916610 -3.829803 -13.878616 19.301889 1.536995 -0.214911 -11.194486 -12.431798 12.588241 0.000000 0.000000 0.000000 2.331772 -0.307992 -0.135365 0.000000 0.000000 0.000000 3.092497 -0.511772 0.623045 3.019493 -0.209397 0.135643 0.000000 0.000000 0.000000 3.020391 -0.191999 0.133191 -1.258962 0.014440 -0.006507 0.000000 0.000000 0.000000 3.020391 -0.191999 0.133191 0.706287 6.977574 -13.045911 9.162109 -7.642069 -55.387438 -0.000002 -32.283975 -0.000010 0.000000 0.000000 0.000000 3.020391 -0.191999 0.133191 1.190441 -6.388125 12.835386 2.074944 18.347867 59.179450 0.000002 20.785814 -0.000008 0.000000 0.000000 0.000000 
